# xmcd
#
# Track frame offsets:
#	150
#	19575
#	34562
#	61765
#	84729
#	107580
#	142540
#	164792
#	185590
#	206947
#
# Disc length: 3205 seconds
#
# Revision: 0
# Processed by: cddbd v1.4PL0 Copyright (c) Steve Scherf et al.
# Submitted via: audiograbber 1.81.01
#
DISCID=800c830a
DTITLE=Cissy Strut - Fools in Blue
DYEAR=1900
DGENRE=
TTITLE0=Funky Soul
TTITLE1=Do the Stomp
TTITLE2=Just Wanna be Your Lover
TTITLE3=It Hurts Me
TTITLE4=Stop Man
TTITLE5=Telephone Crime
TTITLE6=Leave Your Hands Off My Guitar
TTITLE7=Fools in Blue
TTITLE8=Waitin'
TTITLE9=I'm Livin' Again
EXTD=
EXTT0=
EXTT1=
EXTT2=
EXTT3=
EXTT4=
EXTT5=
EXTT6=
EXTT7=
EXTT8=
EXTT9=
PLAYORDER=
